<?xml version="1.0" encoding="utf-8" standalone="no"?>
<!DOCTYPE svg PUBLIC "-//W3C//DTD SVG 1.1//EN"
  "http://www.w3.org/Graphics/SVG/1.1/DTD/svg11.dtd">
<svg xmlns:xlink="http://www.w3.org/1999/xlink" width="708.145312pt" height="491.75pt" viewBox="0 0 708.145312 491.75" xmlns="http://www.w3.org/2000/svg" version="1.1">
 <metadata>
  <rdf:RDF xmlns:dc="http://purl.org/dc/elements/1.1/" xmlns:cc="http://creativecommons.org/ns#" xmlns:rdf="http://www.w3.org/1999/02/22-rdf-syntax-ns#">
   <cc:Work>
    <dc:type rdf:resource="http://purl.org/dc/dcmitype/StillImage"/>
    <dc:date>2026-03-28T16:40:40.298024</dc:date>
    <dc:format>image/svg+xml</dc:format>
    <dc:creator>
     <cc:Agent>
      <dc:title>Matplotlib v3.10.8, https://matplotlib.org/</dc:title>
     </cc:Agent>
    </dc:creator>
   </cc:Work>
  </rdf:RDF>
 </metadata>
 <defs>
  <style type="text/css">*{stroke-linejoin: round; stroke-linecap: butt}</style>
 </defs>
 <g id="figure_1">
  <g id="patch_1">
   <path d="M 0 491.75 
L 708.145312 491.75 
L 708.145312 0 
L 0 0 
z
" style="fill: #fafafa"/>
  </g>
  <g id="axes_1">
   <g id="patch_2">
    <path d="M 51.345313 449.456875 
L 687.602813 449.456875 
L 687.602813 40.356875 
L 51.345313 40.356875 
z
" style="fill: #fafafa"/>
   </g>
   <g id="matplotlib.axis_1">
    <g id="xtick_1">
     <g id="line2d_1">
      <path d="M 51.345313 449.456875 
L 51.345313 40.356875 
" clip-path="url(#p60a132817f)" style="fill: none; stroke-dasharray: 2.96,1.28; stroke-dashoffset: 0; stroke: #b0b0b0; stroke-opacity: 0.3; stroke-width: 0.8"/>
     </g>
     <g id="line2d_2">
      <defs>
       <path id="mdb9a94071b" d="M 0 0 
L 0 3.5 
" style="stroke: #000000; stroke-width: 0.8"/>
      </defs>
      <g>
       <use xlink:href="#mdb9a94071b" x="51.345313" y="449.456875" style="stroke: #000000; stroke-width: 0.8"/>
      </g>
     </g>
     <g id="text_1">
      <!-- 0 -->
      <g transform="translate(48.009688 465.025625) scale(0.12 -0.12)">
       <defs>
        <path id="HelveticaNeue-30" d="M 845 2234 
Q 845 2400 848 2601 
Q 851 2803 880 3004 
Q 909 3206 963 3398 
Q 1018 3590 1123 3734 
Q 1229 3878 1389 3968 
Q 1549 4058 1779 4058 
Q 2010 4058 2170 3968 
Q 2330 3878 2435 3734 
Q 2541 3590 2595 3398 
Q 2650 3206 2678 3004 
Q 2707 2803 2710 2601 
Q 2714 2400 2714 2234 
Q 2714 1978 2698 1661 
Q 2682 1344 2595 1065 
Q 2509 787 2317 595 
Q 2125 403 1779 403 
Q 1434 403 1242 595 
Q 1050 787 963 1065 
Q 877 1344 861 1661 
Q 845 1978 845 2234 
z
M 269 2227 
Q 269 1978 281 1709 
Q 294 1440 345 1184 
Q 397 928 493 701 
Q 589 474 755 301 
Q 922 128 1174 29 
Q 1427 -70 1779 -70 
Q 2138 -70 2387 29 
Q 2637 128 2803 301 
Q 2970 474 3066 701 
Q 3162 928 3213 1184 
Q 3264 1440 3277 1709 
Q 3290 1978 3290 2227 
Q 3290 2477 3277 2745 
Q 3264 3014 3213 3270 
Q 3162 3526 3066 3756 
Q 2970 3987 2803 4160 
Q 2637 4333 2384 4435 
Q 2131 4538 1779 4538 
Q 1427 4538 1174 4435 
Q 922 4333 755 4160 
Q 589 3987 493 3756 
Q 397 3526 345 3270 
Q 294 3014 281 2745 
Q 269 2477 269 2227 
z
" transform="scale(0.015625)"/>
       </defs>
       <use xlink:href="#HelveticaNeue-30"/>
      </g>
     </g>
    </g>
    <g id="xtick_2">
     <g id="line2d_3">
      <path d="M 178.596812 449.456875 
L 178.596812 40.356875 
" clip-path="url(#p60a132817f)" style="fill: none; stroke-dasharray: 2.96,1.28; stroke-dashoffset: 0; stroke: #b0b0b0; stroke-opacity: 0.3; stroke-width: 0.8"/>
     </g>
     <g id="line2d_4">
      <g>
       <use xlink:href="#mdb9a94071b" x="178.596812" y="449.456875" style="stroke: #000000; stroke-width: 0.8"/>
      </g>
     </g>
     <g id="text_2">
      <!-- 200 -->
      <g transform="translate(168.589937 465.025625) scale(0.12 -0.12)">
       <defs>
        <path id="HelveticaNeue-32" d="M 282 2931 
L 826 2931 
Q 819 3136 867 3337 
Q 915 3539 1024 3699 
Q 1133 3859 1302 3958 
Q 1472 4058 1709 4058 
Q 1888 4058 2048 4000 
Q 2208 3942 2326 3833 
Q 2445 3725 2515 3574 
Q 2586 3424 2586 3238 
Q 2586 3002 2512 2822 
Q 2438 2643 2294 2489 
Q 2150 2336 1932 2185 
Q 1715 2035 1427 1856 
Q 1190 1715 972 1555 
Q 755 1395 582 1184 
Q 410 973 298 688 
Q 186 403 154 0 
L 3117 0 
L 3117 480 
L 787 480 
Q 826 691 950 854 
Q 1075 1018 1251 1158 
Q 1427 1299 1638 1424 
Q 1850 1549 2061 1677 
Q 2272 1811 2470 1958 
Q 2669 2106 2822 2288 
Q 2976 2470 3069 2700 
Q 3162 2931 3162 3232 
Q 3162 3552 3050 3795 
Q 2938 4038 2746 4201 
Q 2554 4365 2294 4451 
Q 2035 4538 1741 4538 
Q 1382 4538 1100 4416 
Q 819 4294 630 4080 
Q 442 3866 352 3571 
Q 262 3277 282 2931 
z
" transform="scale(0.015625)"/>
       </defs>
       <use xlink:href="#HelveticaNeue-32"/>
       <use xlink:href="#HelveticaNeue-30" transform="translate(55.599991 0)"/>
       <use xlink:href="#HelveticaNeue-30" transform="translate(111.199982 0)"/>
      </g>
     </g>
    </g>
    <g id="xtick_3">
     <g id="line2d_5">
      <path d="M 305.848313 449.456875 
L 305.848313 40.356875 
" clip-path="url(#p60a132817f)" style="fill: none; stroke-dasharray: 2.96,1.28; stroke-dashoffset: 0; stroke: #b0b0b0; stroke-opacity: 0.3; stroke-width: 0.8"/>
     </g>
     <g id="line2d_6">
      <g>
       <use xlink:href="#mdb9a94071b" x="305.848313" y="449.456875" style="stroke: #000000; stroke-width: 0.8"/>
      </g>
     </g>
     <g id="text_3">
      <!-- 400 -->
      <g transform="translate(295.841438 465.025625) scale(0.12 -0.12)">
       <defs>
        <path id="HelveticaNeue-34" d="M 2170 1542 
L 646 1542 
L 2157 3763 
L 2170 3763 
L 2170 1542 
z
M 2682 1542 
L 2682 4538 
L 2246 4538 
L 179 1587 
L 179 1062 
L 2170 1062 
L 2170 0 
L 2682 0 
L 2682 1062 
L 3296 1062 
L 3296 1542 
L 2682 1542 
z
" transform="scale(0.015625)"/>
       </defs>
       <use xlink:href="#HelveticaNeue-34"/>
       <use xlink:href="#HelveticaNeue-30" transform="translate(55.599991 0)"/>
       <use xlink:href="#HelveticaNeue-30" transform="translate(111.199982 0)"/>
      </g>
     </g>
    </g>
    <g id="xtick_4">
     <g id="line2d_7">
      <path d="M 433.099812 449.456875 
L 433.099812 40.356875 
" clip-path="url(#p60a132817f)" style="fill: none; stroke-dasharray: 2.96,1.28; stroke-dashoffset: 0; stroke: #b0b0b0; stroke-opacity: 0.3; stroke-width: 0.8"/>
     </g>
     <g id="line2d_8">
      <g>
       <use xlink:href="#mdb9a94071b" x="433.099812" y="449.456875" style="stroke: #000000; stroke-width: 0.8"/>
      </g>
     </g>
     <g id="text_4">
      <!-- 600 -->
      <g transform="translate(423.092938 465.025625) scale(0.12 -0.12)">
       <defs>
        <path id="HelveticaNeue-36" d="M 2650 3379 
L 3194 3379 
Q 3142 3942 2809 4240 
Q 2477 4538 1914 4538 
Q 1427 4538 1107 4333 
Q 787 4128 595 3789 
Q 403 3450 323 3011 
Q 243 2573 243 2106 
Q 243 1747 297 1363 
Q 352 979 518 659 
Q 685 339 992 134 
Q 1299 -70 1805 -70 
Q 2234 -70 2525 74 
Q 2816 218 2992 438 
Q 3168 659 3245 928 
Q 3322 1197 3322 1446 
Q 3322 1760 3226 2029 
Q 3130 2298 2954 2496 
Q 2778 2694 2518 2806 
Q 2259 2918 1933 2918 
Q 1562 2918 1277 2777 
Q 992 2637 800 2323 
L 787 2336 
Q 794 2598 838 2899 
Q 883 3200 1001 3459 
Q 1120 3718 1331 3888 
Q 1542 4058 1888 4058 
Q 2214 4058 2412 3872 
Q 2611 3686 2650 3379 
z
M 1830 2438 
Q 2061 2438 2233 2355 
Q 2406 2272 2521 2134 
Q 2637 1997 2691 1808 
Q 2746 1619 2746 1408 
Q 2746 1210 2685 1027 
Q 2624 845 2509 704 
Q 2394 563 2224 483 
Q 2054 403 1830 403 
Q 1606 403 1430 483 
Q 1254 563 1136 697 
Q 1018 832 954 1017 
Q 890 1203 890 1414 
Q 890 1626 950 1814 
Q 1011 2003 1132 2140 
Q 1254 2278 1427 2358 
Q 1600 2438 1830 2438 
z
" transform="scale(0.015625)"/>
       </defs>
       <use xlink:href="#HelveticaNeue-36"/>
       <use xlink:href="#HelveticaNeue-30" transform="translate(55.599991 0)"/>
       <use xlink:href="#HelveticaNeue-30" transform="translate(111.199982 0)"/>
      </g>
     </g>
    </g>
    <g id="xtick_5">
     <g id="line2d_9">
      <path d="M 560.351313 449.456875 
L 560.351313 40.356875 
" clip-path="url(#p60a132817f)" style="fill: none; stroke-dasharray: 2.96,1.28; stroke-dashoffset: 0; stroke: #b0b0b0; stroke-opacity: 0.3; stroke-width: 0.8"/>
     </g>
     <g id="line2d_10">
      <g>
       <use xlink:href="#mdb9a94071b" x="560.351313" y="449.456875" style="stroke: #000000; stroke-width: 0.8"/>
      </g>
     </g>
     <g id="text_5">
      <!-- 800 -->
      <g transform="translate(550.344438 465.025625) scale(0.12 -0.12)">
       <defs>
        <path id="HelveticaNeue-38" d="M 992 3360 
Q 992 3533 1056 3661 
Q 1120 3789 1225 3878 
Q 1331 3968 1478 4013 
Q 1626 4058 1786 4058 
Q 2118 4058 2332 3882 
Q 2547 3706 2547 3360 
Q 2547 3014 2336 2822 
Q 2125 2630 1798 2630 
Q 1632 2630 1485 2675 
Q 1338 2720 1229 2809 
Q 1120 2899 1056 3036 
Q 992 3174 992 3360 
z
M 416 3379 
Q 416 3072 589 2813 
Q 762 2554 1050 2438 
Q 666 2304 461 2006 
Q 256 1709 256 1306 
Q 256 960 374 701 
Q 493 442 701 269 
Q 909 96 1190 13 
Q 1472 -70 1798 -70 
Q 2112 -70 2387 19 
Q 2662 109 2864 285 
Q 3066 461 3184 717 
Q 3302 973 3302 1306 
Q 3302 1728 3104 2019 
Q 2906 2310 2496 2438 
Q 2784 2566 2953 2819 
Q 3123 3072 3123 3379 
Q 3123 3597 3046 3805 
Q 2970 4013 2806 4176 
Q 2643 4339 2380 4438 
Q 2118 4538 1747 4538 
Q 1485 4538 1245 4461 
Q 1005 4384 819 4237 
Q 634 4090 525 3875 
Q 416 3661 416 3379 
z
M 832 1280 
Q 832 1478 905 1638 
Q 979 1798 1110 1913 
Q 1242 2029 1418 2089 
Q 1594 2150 1792 2150 
Q 1984 2150 2153 2083 
Q 2323 2016 2451 1901 
Q 2579 1786 2652 1629 
Q 2726 1472 2726 1286 
Q 2726 1094 2659 934 
Q 2592 774 2467 656 
Q 2342 538 2172 470 
Q 2003 403 1798 403 
Q 1376 403 1104 636 
Q 832 870 832 1280 
z
" transform="scale(0.015625)"/>
       </defs>
       <use xlink:href="#HelveticaNeue-38"/>
       <use xlink:href="#HelveticaNeue-30" transform="translate(55.599991 0)"/>
       <use xlink:href="#HelveticaNeue-30" transform="translate(111.199982 0)"/>
      </g>
     </g>
    </g>
    <g id="xtick_6">
     <g id="line2d_11">
      <path d="M 687.602813 449.456875 
L 687.602813 40.356875 
" clip-path="url(#p60a132817f)" style="fill: none; stroke-dasharray: 2.96,1.28; stroke-dashoffset: 0; stroke: #b0b0b0; stroke-opacity: 0.3; stroke-width: 0.8"/>
     </g>
     <g id="line2d_12">
      <g>
       <use xlink:href="#mdb9a94071b" x="687.602813" y="449.456875" style="stroke: #000000; stroke-width: 0.8"/>
      </g>
     </g>
     <g id="text_6">
      <!-- 1000 -->
      <g transform="translate(674.260313 465.025625) scale(0.12 -0.12)">
       <defs>
        <path id="HelveticaNeue-31" d="M 2278 0 
L 2278 4538 
L 1862 4538 
Q 1818 4282 1696 4115 
Q 1574 3949 1398 3853 
Q 1222 3757 1004 3721 
Q 787 3686 557 3686 
L 557 3251 
L 1734 3251 
L 1734 0 
L 2278 0 
z
" transform="scale(0.015625)"/>
       </defs>
       <use xlink:href="#HelveticaNeue-31"/>
       <use xlink:href="#HelveticaNeue-30" transform="translate(55.599991 0)"/>
       <use xlink:href="#HelveticaNeue-30" transform="translate(111.199982 0)"/>
       <use xlink:href="#HelveticaNeue-30" transform="translate(166.799973 0)"/>
      </g>
     </g>
    </g>
    <g id="text_7">
     <!-- Input Length (tokens) -->
     <g transform="translate(303.338281 481.623125) scale(0.14 -0.14)">
      <defs>
       <path id="HelveticaNeue-49" d="M 525 4570 
L 525 0 
L 1133 0 
L 1133 4570 
L 525 4570 
z
" transform="scale(0.015625)"/>
       <path id="HelveticaNeue-6e" d="M 410 3309 
L 410 0 
L 954 0 
L 954 1869 
Q 954 2093 1014 2281 
Q 1075 2470 1196 2611 
Q 1318 2752 1500 2829 
Q 1683 2906 1933 2906 
Q 2246 2906 2425 2726 
Q 2605 2547 2605 2240 
L 2605 0 
L 3149 0 
L 3149 2176 
Q 3149 2445 3094 2665 
Q 3040 2886 2905 3046 
Q 2771 3206 2553 3296 
Q 2336 3386 2010 3386 
Q 1274 3386 934 2784 
L 922 2784 
L 922 3309 
L 410 3309 
z
" transform="scale(0.015625)"/>
       <path id="HelveticaNeue-70" d="M 429 3309 
L 429 -1261 
L 973 -1261 
L 973 442 
L 986 442 
Q 1075 294 1206 195 
Q 1338 96 1485 38 
Q 1632 -19 1782 -44 
Q 1933 -70 2054 -70 
Q 2432 -70 2717 64 
Q 3002 198 3190 432 
Q 3379 666 3472 979 
Q 3565 1293 3565 1645 
Q 3565 1997 3469 2310 
Q 3373 2624 3184 2864 
Q 2995 3104 2710 3245 
Q 2426 3386 2042 3386 
Q 1696 3386 1408 3261 
Q 1120 3136 986 2861 
L 973 2861 
L 973 3309 
L 429 3309 
z
M 2989 1683 
Q 2989 1440 2937 1209 
Q 2886 979 2771 800 
Q 2656 621 2467 512 
Q 2278 403 1997 403 
Q 1715 403 1516 508 
Q 1318 614 1193 787 
Q 1069 960 1011 1187 
Q 954 1414 954 1658 
Q 954 1888 1008 2112 
Q 1062 2336 1184 2512 
Q 1306 2688 1498 2797 
Q 1690 2906 1965 2906 
Q 2227 2906 2422 2803 
Q 2618 2701 2742 2528 
Q 2867 2355 2928 2134 
Q 2989 1914 2989 1683 
z
" transform="scale(0.015625)"/>
       <path id="HelveticaNeue-75" d="M 3149 0 
L 3149 3309 
L 2605 3309 
L 2605 1440 
Q 2605 1216 2544 1027 
Q 2483 838 2361 697 
Q 2240 557 2057 480 
Q 1875 403 1626 403 
Q 1312 403 1133 582 
Q 954 762 954 1069 
L 954 3309 
L 410 3309 
L 410 1133 
Q 410 864 464 643 
Q 518 422 652 262 
Q 787 102 1004 16 
Q 1222 -70 1549 -70 
Q 1914 -70 2182 74 
Q 2451 218 2624 525 
L 2637 525 
L 2637 0 
L 3149 0 
z
" transform="scale(0.015625)"/>
       <path id="HelveticaNeue-74" d="M 1165 3309 
L 1165 4301 
L 621 4301 
L 621 3309 
L 58 3309 
L 58 2829 
L 621 2829 
L 621 723 
Q 621 493 665 352 
Q 710 211 803 134 
Q 896 58 1046 29 
Q 1197 0 1408 0 
L 1824 0 
L 1824 480 
L 1574 480 
Q 1446 480 1366 489 
Q 1286 499 1241 531 
Q 1197 563 1181 620 
Q 1165 678 1165 774 
L 1165 2829 
L 1824 2829 
L 1824 3309 
L 1165 3309 
z
" transform="scale(0.015625)"/>
       <path id="HelveticaNeue-20" transform="scale(0.015625)"/>
       <path id="HelveticaNeue-4c" d="M 499 4570 
L 499 0 
L 3526 0 
L 3526 512 
L 1107 512 
L 1107 4570 
L 499 4570 
z
" transform="scale(0.015625)"/>
       <path id="HelveticaNeue-65" d="M 2707 1971 
L 806 1971 
Q 819 2163 889 2332 
Q 960 2502 1081 2630 
Q 1203 2758 1372 2832 
Q 1542 2906 1754 2906 
Q 1958 2906 2128 2832 
Q 2298 2758 2422 2633 
Q 2547 2509 2620 2336 
Q 2694 2163 2707 1971 
z
M 3232 1050 
L 2694 1050 
Q 2624 723 2403 563 
Q 2182 403 1837 403 
Q 1568 403 1369 492 
Q 1171 582 1043 732 
Q 915 883 857 1078 
Q 800 1274 806 1491 
L 3283 1491 
Q 3296 1792 3229 2125 
Q 3162 2458 2986 2739 
Q 2810 3021 2518 3203 
Q 2227 3386 1786 3386 
Q 1446 3386 1161 3258 
Q 877 3130 669 2899 
Q 461 2669 345 2355 
Q 230 2042 230 1664 
Q 243 1286 342 966 
Q 442 646 640 416 
Q 838 186 1129 58 
Q 1421 -70 1818 -70 
Q 2381 -70 2752 211 
Q 3123 493 3232 1050 
z
" transform="scale(0.015625)"/>
       <path id="HelveticaNeue-67" d="M 3264 282 
L 3264 3309 
L 2752 3309 
L 2752 2835 
L 2746 2835 
Q 2598 3110 2336 3248 
Q 2074 3386 1760 3386 
Q 1331 3386 1036 3222 
Q 742 3059 563 2806 
Q 384 2554 307 2243 
Q 230 1933 230 1638 
Q 230 1299 323 995 
Q 416 691 601 464 
Q 787 237 1062 102 
Q 1338 -32 1709 -32 
Q 2029 -32 2313 112 
Q 2598 256 2739 563 
L 2752 563 
L 2752 346 
Q 2752 70 2697 -160 
Q 2643 -390 2521 -553 
Q 2400 -717 2214 -809 
Q 2029 -902 1760 -902 
Q 1626 -902 1478 -873 
Q 1331 -845 1206 -781 
Q 1082 -717 995 -614 
Q 909 -512 902 -365 
L 358 -365 
Q 371 -634 499 -819 
Q 627 -1005 822 -1120 
Q 1018 -1235 1258 -1286 
Q 1498 -1338 1728 -1338 
Q 2522 -1338 2893 -934 
Q 3264 -531 3264 282 
z
M 1741 442 
Q 1472 442 1293 554 
Q 1114 666 1005 848 
Q 896 1030 851 1254 
Q 806 1478 806 1702 
Q 806 1939 860 2156 
Q 915 2374 1033 2540 
Q 1152 2707 1337 2806 
Q 1523 2906 1786 2906 
Q 2042 2906 2221 2803 
Q 2400 2701 2512 2531 
Q 2624 2362 2675 2150 
Q 2726 1939 2726 1722 
Q 2726 1491 2672 1260 
Q 2618 1030 2502 848 
Q 2387 666 2198 554 
Q 2010 442 1741 442 
z
" transform="scale(0.015625)"/>
       <path id="HelveticaNeue-68" d="M 410 4570 
L 410 0 
L 954 0 
L 954 1869 
Q 954 2093 1014 2281 
Q 1075 2470 1196 2611 
Q 1318 2752 1500 2829 
Q 1683 2906 1933 2906 
Q 2246 2906 2425 2726 
Q 2605 2547 2605 2240 
L 2605 0 
L 3149 0 
L 3149 2176 
Q 3149 2445 3094 2665 
Q 3040 2886 2905 3046 
Q 2771 3206 2553 3296 
Q 2336 3386 2010 3386 
Q 1862 3386 1705 3354 
Q 1549 3322 1405 3254 
Q 1261 3187 1145 3081 
Q 1030 2976 966 2822 
L 954 2822 
L 954 4570 
L 410 4570 
z
" transform="scale(0.015625)"/>
       <path id="HelveticaNeue-28" d="M 1306 -1261 
L 1722 -1261 
Q 1267 -525 1072 198 
Q 877 922 877 1728 
Q 877 2515 1069 3232 
Q 1261 3949 1722 4678 
L 1306 4678 
Q 806 4019 553 3251 
Q 301 2483 301 1728 
Q 301 1306 371 922 
Q 442 538 573 173 
Q 704 -192 889 -547 
Q 1075 -902 1306 -1261 
z
" transform="scale(0.015625)"/>
       <path id="HelveticaNeue-6f" d="M 806 1651 
Q 806 1952 886 2185 
Q 966 2419 1107 2579 
Q 1248 2739 1437 2822 
Q 1626 2906 1837 2906 
Q 2048 2906 2237 2822 
Q 2426 2739 2566 2579 
Q 2707 2419 2787 2185 
Q 2867 1952 2867 1651 
Q 2867 1350 2787 1116 
Q 2707 883 2566 726 
Q 2426 570 2237 486 
Q 2048 403 1837 403 
Q 1626 403 1437 486 
Q 1248 570 1107 726 
Q 966 883 886 1116 
Q 806 1350 806 1651 
z
M 230 1651 
Q 230 1286 332 972 
Q 435 659 640 425 
Q 845 192 1145 61 
Q 1446 -70 1837 -70 
Q 2234 -70 2531 61 
Q 2829 192 3033 425 
Q 3238 659 3340 972 
Q 3443 1286 3443 1651 
Q 3443 2016 3340 2333 
Q 3238 2650 3033 2883 
Q 2829 3117 2531 3251 
Q 2234 3386 1837 3386 
Q 1446 3386 1145 3251 
Q 845 3117 640 2883 
Q 435 2650 332 2333 
Q 230 2016 230 1651 
z
" transform="scale(0.015625)"/>
       <path id="HelveticaNeue-6b" d="M 442 4570 
L 442 0 
L 986 0 
L 986 1254 
L 1498 1728 
L 2630 0 
L 3322 0 
L 1914 2106 
L 3226 3309 
L 2496 3309 
L 986 1862 
L 986 4570 
L 442 4570 
z
" transform="scale(0.015625)"/>
       <path id="HelveticaNeue-73" d="M 742 1043 
L 198 1043 
Q 211 736 326 521 
Q 442 307 634 176 
Q 826 45 1075 -12 
Q 1325 -70 1600 -70 
Q 1850 -70 2102 -22 
Q 2355 26 2556 147 
Q 2758 269 2883 467 
Q 3008 666 3008 966 
Q 3008 1203 2915 1363 
Q 2822 1523 2672 1628 
Q 2522 1734 2326 1798 
Q 2131 1862 1926 1907 
Q 1734 1952 1542 1993 
Q 1350 2035 1196 2096 
Q 1043 2157 944 2249 
Q 845 2342 845 2483 
Q 845 2611 909 2691 
Q 973 2771 1075 2819 
Q 1178 2867 1302 2886 
Q 1427 2906 1549 2906 
Q 1683 2906 1814 2877 
Q 1946 2848 2054 2784 
Q 2163 2720 2233 2614 
Q 2304 2509 2317 2349 
L 2861 2349 
Q 2842 2650 2733 2851 
Q 2624 3053 2441 3171 
Q 2259 3290 2022 3338 
Q 1786 3386 1504 3386 
Q 1286 3386 1065 3331 
Q 845 3277 669 3165 
Q 493 3053 381 2873 
Q 269 2694 269 2445 
Q 269 2125 429 1945 
Q 589 1766 829 1667 
Q 1069 1568 1350 1513 
Q 1632 1459 1872 1392 
Q 2112 1325 2272 1216 
Q 2432 1107 2432 896 
Q 2432 742 2355 643 
Q 2278 544 2160 493 
Q 2042 442 1901 422 
Q 1760 403 1632 403 
Q 1466 403 1309 435 
Q 1152 467 1027 540 
Q 902 614 825 739 
Q 749 864 742 1043 
z
" transform="scale(0.015625)"/>
       <path id="HelveticaNeue-29" d="M -58 -1261 
L 352 -1261 
Q 851 -602 1104 163 
Q 1357 928 1357 1683 
Q 1357 2106 1286 2490 
Q 1216 2874 1085 3242 
Q 954 3610 768 3965 
Q 582 4320 352 4678 
L -58 4678 
Q 390 3942 585 3216 
Q 781 2490 781 1683 
Q 781 902 589 182 
Q 397 -538 -58 -1261 
z
" transform="scale(0.015625)"/>
      </defs>
      <use xlink:href="#HelveticaNeue-49"/>
      <use xlink:href="#HelveticaNeue-6e" transform="translate(25.899994 0)"/>
      <use xlink:href="#HelveticaNeue-70" transform="translate(81.499985 0)"/>
      <use xlink:href="#HelveticaNeue-75" transform="translate(140.799973 0)"/>
      <use xlink:href="#HelveticaNeue-74" transform="translate(196.399963 0)"/>
      <use xlink:href="#HelveticaNeue-20" transform="translate(227.899948 0)"/>
      <use xlink:href="#HelveticaNeue-4c" transform="translate(255.699936 0)"/>
      <use xlink:href="#HelveticaNeue-65" transform="translate(311.299927 0)"/>
      <use xlink:href="#HelveticaNeue-6e" transform="translate(364.999924 0)"/>
      <use xlink:href="#HelveticaNeue-67" transform="translate(420.599915 0)"/>
      <use xlink:href="#HelveticaNeue-74" transform="translate(477.999908 0)"/>
      <use xlink:href="#HelveticaNeue-68" transform="translate(509.499893 0)"/>
      <use xlink:href="#HelveticaNeue-20" transform="translate(565.099884 0)"/>
      <use xlink:href="#HelveticaNeue-28" transform="translate(592.899872 0)"/>
      <use xlink:href="#HelveticaNeue-74" transform="translate(618.799866 0)"/>
      <use xlink:href="#HelveticaNeue-6f" transform="translate(650.29985 0)"/>
      <use xlink:href="#HelveticaNeue-6b" transform="translate(707.699844 0)"/>
      <use xlink:href="#HelveticaNeue-65" transform="translate(759.599838 0)"/>
      <use xlink:href="#HelveticaNeue-6e" transform="translate(813.299835 0)"/>
      <use xlink:href="#HelveticaNeue-73" transform="translate(868.899826 0)"/>
      <use xlink:href="#HelveticaNeue-29" transform="translate(918.899811 0)"/>
     </g>
    </g>
   </g>
   <g id="matplotlib.axis_2">
    <g id="ytick_1">
     <g id="line2d_13">
      <path d="M 51.345313 449.456875 
L 687.602813 449.456875 
" clip-path="url(#p60a132817f)" style="fill: none; stroke-dasharray: 2.96,1.28; stroke-dashoffset: 0; stroke: #b0b0b0; stroke-opacity: 0.3; stroke-width: 0.8"/>
     </g>
     <g id="line2d_14">
      <defs>
       <path id="ma04e708c03" d="M 0 0 
L -3.5 0 
" style="stroke: #000000; stroke-width: 0.8"/>
      </defs>
      <g>
       <use xlink:href="#ma04e708c03" x="51.345313" y="449.456875" style="stroke: #000000; stroke-width: 0.8"/>
      </g>
     </g>
     <g id="text_8">
      <!-- 0 -->
      <g transform="translate(37.674063 453.74125) scale(0.12 -0.12)">
       <use xlink:href="#HelveticaNeue-30"/>
      </g>
     </g>
    </g>
    <g id="ytick_2">
     <g id="line2d_15">
      <path d="M 51.345313 398.319375 
L 687.602813 398.319375 
" clip-path="url(#p60a132817f)" style="fill: none; stroke-dasharray: 2.96,1.28; stroke-dashoffset: 0; stroke: #b0b0b0; stroke-opacity: 0.3; stroke-width: 0.8"/>
     </g>
     <g id="line2d_16">
      <g>
       <use xlink:href="#ma04e708c03" x="51.345313" y="398.319375" style="stroke: #000000; stroke-width: 0.8"/>
      </g>
     </g>
     <g id="text_9">
      <!-- 25 -->
      <g transform="translate(31.002813 402.60375) scale(0.12 -0.12)">
       <defs>
        <path id="HelveticaNeue-35" d="M 3008 3981 
L 3008 4461 
L 768 4461 
L 346 2106 
L 813 2080 
Q 973 2272 1181 2390 
Q 1389 2509 1658 2509 
Q 1888 2509 2077 2432 
Q 2266 2355 2400 2217 
Q 2534 2080 2608 1891 
Q 2682 1702 2682 1478 
Q 2682 1210 2605 1008 
Q 2528 806 2397 672 
Q 2266 538 2090 470 
Q 1914 403 1722 403 
Q 1517 403 1347 464 
Q 1178 525 1053 637 
Q 928 749 854 899 
Q 781 1050 768 1222 
L 224 1222 
Q 230 915 345 672 
Q 461 429 659 265 
Q 858 102 1117 16 
Q 1376 -70 1670 -70 
Q 2067 -70 2364 54 
Q 2662 179 2860 390 
Q 3059 602 3158 874 
Q 3258 1146 3258 1434 
Q 3258 1824 3142 2115 
Q 3027 2406 2828 2601 
Q 2630 2797 2361 2893 
Q 2093 2989 1792 2989 
Q 1562 2989 1328 2909 
Q 1094 2829 947 2662 
L 934 2675 
L 1178 3981 
L 3008 3981 
z
" transform="scale(0.015625)"/>
       </defs>
       <use xlink:href="#HelveticaNeue-32"/>
       <use xlink:href="#HelveticaNeue-35" transform="translate(55.599991 0)"/>
      </g>
     </g>
    </g>
    <g id="ytick_3">
     <g id="line2d_17">
      <path d="M 51.345313 347.181875 
L 687.602813 347.181875 
" clip-path="url(#p60a132817f)" style="fill: none; stroke-dasharray: 2.96,1.28; stroke-dashoffset: 0; stroke: #b0b0b0; stroke-opacity: 0.3; stroke-width: 0.8"/>
     </g>
     <g id="line2d_18">
      <g>
       <use xlink:href="#ma04e708c03" x="51.345313" y="347.181875" style="stroke: #000000; stroke-width: 0.8"/>
      </g>
     </g>
     <g id="text_10">
      <!-- 50 -->
      <g transform="translate(31.002813 351.46625) scale(0.12 -0.12)">
       <use xlink:href="#HelveticaNeue-35"/>
       <use xlink:href="#HelveticaNeue-30" transform="translate(55.599991 0)"/>
      </g>
     </g>
    </g>
    <g id="ytick_4">
     <g id="line2d_19">
      <path d="M 51.345313 296.044375 
L 687.602813 296.044375 
" clip-path="url(#p60a132817f)" style="fill: none; stroke-dasharray: 2.96,1.28; stroke-dashoffset: 0; stroke: #b0b0b0; stroke-opacity: 0.3; stroke-width: 0.8"/>
     </g>
     <g id="line2d_20">
      <g>
       <use xlink:href="#ma04e708c03" x="51.345313" y="296.044375" style="stroke: #000000; stroke-width: 0.8"/>
      </g>
     </g>
     <g id="text_11">
      <!-- 75 -->
      <g transform="translate(31.002813 300.32875) scale(0.12 -0.12)">
       <defs>
        <path id="HelveticaNeue-37" d="M 3258 3994 
L 3258 4461 
L 320 4461 
L 320 3949 
L 2701 3949 
Q 2342 3571 2032 3123 
Q 1722 2675 1485 2172 
Q 1248 1670 1097 1123 
Q 947 576 909 0 
L 1517 0 
Q 1549 531 1696 1094 
Q 1843 1658 2076 2189 
Q 2310 2720 2611 3187 
Q 2912 3654 3258 3994 
z
" transform="scale(0.015625)"/>
       </defs>
       <use xlink:href="#HelveticaNeue-37"/>
       <use xlink:href="#HelveticaNeue-35" transform="translate(55.599991 0)"/>
      </g>
     </g>
    </g>
    <g id="ytick_5">
     <g id="line2d_21">
      <path d="M 51.345313 244.906875 
L 687.602813 244.906875 
" clip-path="url(#p60a132817f)" style="fill: none; stroke-dasharray: 2.96,1.28; stroke-dashoffset: 0; stroke: #b0b0b0; stroke-opacity: 0.3; stroke-width: 0.8"/>
     </g>
     <g id="line2d_22">
      <g>
       <use xlink:href="#ma04e708c03" x="51.345313" y="244.906875" style="stroke: #000000; stroke-width: 0.8"/>
      </g>
     </g>
     <g id="text_12">
      <!-- 100 -->
      <g transform="translate(24.331563 249.19125) scale(0.12 -0.12)">
       <use xlink:href="#HelveticaNeue-31"/>
       <use xlink:href="#HelveticaNeue-30" transform="translate(55.599991 0)"/>
       <use xlink:href="#HelveticaNeue-30" transform="translate(111.199982 0)"/>
      </g>
     </g>
    </g>
    <g id="ytick_6">
     <g id="line2d_23">
      <path d="M 51.345313 193.769375 
L 687.602813 193.769375 
" clip-path="url(#p60a132817f)" style="fill: none; stroke-dasharray: 2.96,1.28; stroke-dashoffset: 0; stroke: #b0b0b0; stroke-opacity: 0.3; stroke-width: 0.8"/>
     </g>
     <g id="line2d_24">
      <g>
       <use xlink:href="#ma04e708c03" x="51.345313" y="193.769375" style="stroke: #000000; stroke-width: 0.8"/>
      </g>
     </g>
     <g id="text_13">
      <!-- 125 -->
      <g transform="translate(24.331563 198.05375) scale(0.12 -0.12)">
       <use xlink:href="#HelveticaNeue-31"/>
       <use xlink:href="#HelveticaNeue-32" transform="translate(55.599991 0)"/>
       <use xlink:href="#HelveticaNeue-35" transform="translate(111.199982 0)"/>
      </g>
     </g>
    </g>
    <g id="ytick_7">
     <g id="line2d_25">
      <path d="M 51.345313 142.631875 
L 687.602813 142.631875 
" clip-path="url(#p60a132817f)" style="fill: none; stroke-dasharray: 2.96,1.28; stroke-dashoffset: 0; stroke: #b0b0b0; stroke-opacity: 0.3; stroke-width: 0.8"/>
     </g>
     <g id="line2d_26">
      <g>
       <use xlink:href="#ma04e708c03" x="51.345313" y="142.631875" style="stroke: #000000; stroke-width: 0.8"/>
      </g>
     </g>
     <g id="text_14">
      <!-- 150 -->
      <g transform="translate(24.331563 146.91625) scale(0.12 -0.12)">
       <use xlink:href="#HelveticaNeue-31"/>
       <use xlink:href="#HelveticaNeue-35" transform="translate(55.599991 0)"/>
       <use xlink:href="#HelveticaNeue-30" transform="translate(111.199982 0)"/>
      </g>
     </g>
    </g>
    <g id="ytick_8">
     <g id="line2d_27">
      <path d="M 51.345313 91.494375 
L 687.602813 91.494375 
" clip-path="url(#p60a132817f)" style="fill: none; stroke-dasharray: 2.96,1.28; stroke-dashoffset: 0; stroke: #b0b0b0; stroke-opacity: 0.3; stroke-width: 0.8"/>
     </g>
     <g id="line2d_28">
      <g>
       <use xlink:href="#ma04e708c03" x="51.345313" y="91.494375" style="stroke: #000000; stroke-width: 0.8"/>
      </g>
     </g>
     <g id="text_15">
      <!-- 175 -->
      <g transform="translate(24.331563 95.77875) scale(0.12 -0.12)">
       <use xlink:href="#HelveticaNeue-31"/>
       <use xlink:href="#HelveticaNeue-37" transform="translate(55.599991 0)"/>
       <use xlink:href="#HelveticaNeue-35" transform="translate(111.199982 0)"/>
      </g>
     </g>
    </g>
    <g id="ytick_9">
     <g id="line2d_29">
      <path d="M 51.345313 40.356875 
L 687.602813 40.356875 
" clip-path="url(#p60a132817f)" style="fill: none; stroke-dasharray: 2.96,1.28; stroke-dashoffset: 0; stroke: #b0b0b0; stroke-opacity: 0.3; stroke-width: 0.8"/>
     </g>
     <g id="line2d_30">
      <g>
       <use xlink:href="#ma04e708c03" x="51.345313" y="40.356875" style="stroke: #000000; stroke-width: 0.8"/>
      </g>
     </g>
     <g id="text_16">
      <!-- 200 -->
      <g transform="translate(24.331563 44.64125) scale(0.12 -0.12)">
       <use xlink:href="#HelveticaNeue-32"/>
       <use xlink:href="#HelveticaNeue-30" transform="translate(55.599991 0)"/>
       <use xlink:href="#HelveticaNeue-30" transform="translate(111.199982 0)"/>
      </g>
     </g>
    </g>
    <g id="text_17">
     <!-- Latency (ms) -->
     <g transform="translate(17.433125 284.716094) rotate(-90) scale(0.14 -0.14)">
      <defs>
       <path id="HelveticaNeue-61" d="M 3341 13 
Q 3200 -70 2950 -70 
Q 2739 -70 2614 48 
Q 2490 166 2490 435 
Q 2266 166 1968 48 
Q 1670 -70 1325 -70 
Q 1101 -70 899 -19 
Q 698 32 550 141 
Q 403 250 316 426 
Q 230 602 230 851 
Q 230 1133 326 1312 
Q 422 1491 579 1603 
Q 736 1715 937 1772 
Q 1139 1830 1350 1869 
Q 1574 1914 1776 1936 
Q 1978 1958 2131 2000 
Q 2285 2042 2374 2122 
Q 2464 2202 2464 2355 
Q 2464 2534 2397 2643 
Q 2330 2752 2224 2809 
Q 2118 2867 1987 2886 
Q 1856 2906 1728 2906 
Q 1382 2906 1152 2774 
Q 922 2643 902 2278 
L 358 2278 
Q 371 2586 486 2797 
Q 602 3008 794 3139 
Q 986 3270 1232 3328 
Q 1478 3386 1760 3386 
Q 1984 3386 2205 3354 
Q 2426 3322 2605 3222 
Q 2784 3123 2893 2944 
Q 3002 2765 3002 2477 
L 3002 774 
Q 3002 582 3024 492 
Q 3046 403 3174 403 
Q 3245 403 3341 435 
L 3341 13 
z
M 2458 1709 
Q 2355 1632 2188 1597 
Q 2022 1562 1840 1539 
Q 1658 1517 1472 1488 
Q 1286 1459 1139 1395 
Q 992 1331 899 1212 
Q 806 1094 806 890 
Q 806 755 860 662 
Q 915 570 1001 512 
Q 1088 454 1203 428 
Q 1318 403 1446 403 
Q 1715 403 1907 476 
Q 2099 550 2220 662 
Q 2342 774 2400 905 
Q 2458 1037 2458 1152 
L 2458 1709 
z
" transform="scale(0.015625)"/>
       <path id="HelveticaNeue-63" d="M 2656 2246 
L 3219 2246 
Q 3187 2541 3065 2755 
Q 2944 2970 2755 3110 
Q 2566 3251 2320 3318 
Q 2074 3386 1792 3386 
Q 1402 3386 1107 3248 
Q 813 3110 617 2870 
Q 422 2630 326 2307 
Q 230 1984 230 1613 
Q 230 1242 329 931 
Q 429 621 624 397 
Q 819 173 1110 51 
Q 1402 -70 1779 -70 
Q 2413 -70 2781 262 
Q 3149 595 3238 1210 
L 2682 1210 
Q 2630 826 2403 614 
Q 2176 403 1773 403 
Q 1517 403 1331 505 
Q 1146 608 1030 777 
Q 915 947 860 1164 
Q 806 1382 806 1613 
Q 806 1862 857 2096 
Q 909 2330 1027 2509 
Q 1146 2688 1344 2797 
Q 1542 2906 1837 2906 
Q 2182 2906 2387 2733 
Q 2592 2560 2656 2246 
z
" transform="scale(0.015625)"/>
       <path id="HelveticaNeue-79" d="M 1709 -442 
Q 1613 -685 1520 -851 
Q 1427 -1018 1315 -1123 
Q 1203 -1229 1065 -1277 
Q 928 -1325 749 -1325 
Q 653 -1325 557 -1312 
Q 461 -1299 371 -1267 
L 371 -768 
Q 442 -800 534 -822 
Q 627 -845 691 -845 
Q 858 -845 970 -765 
Q 1082 -685 1139 -538 
L 1363 19 
L 51 3309 
L 666 3309 
L 1632 602 
L 1645 602 
L 2573 3309 
L 3149 3309 
L 1709 -442 
z
" transform="scale(0.015625)"/>
       <path id="HelveticaNeue-6d" d="M 410 3309 
L 410 0 
L 954 0 
L 954 2061 
Q 954 2157 1002 2301 
Q 1050 2445 1155 2579 
Q 1261 2714 1430 2810 
Q 1600 2906 1837 2906 
Q 2022 2906 2140 2851 
Q 2259 2797 2329 2697 
Q 2400 2598 2429 2464 
Q 2458 2330 2458 2170 
L 2458 0 
L 3002 0 
L 3002 2061 
Q 3002 2445 3232 2675 
Q 3462 2906 3866 2906 
Q 4064 2906 4189 2848 
Q 4314 2790 4384 2691 
Q 4454 2592 4480 2457 
Q 4506 2323 4506 2170 
L 4506 0 
L 5050 0 
L 5050 2426 
Q 5050 2682 4970 2864 
Q 4890 3046 4746 3161 
Q 4602 3277 4400 3331 
Q 4198 3386 3949 3386 
Q 3622 3386 3350 3238 
Q 3078 3091 2912 2822 
Q 2810 3130 2560 3258 
Q 2310 3386 2003 3386 
Q 1306 3386 934 2822 
L 922 2822 
L 922 3309 
L 410 3309 
z
" transform="scale(0.015625)"/>
      </defs>
      <use xlink:href="#HelveticaNeue-4c"/>
      <use xlink:href="#HelveticaNeue-61" transform="translate(55.599991 0)"/>
      <use xlink:href="#HelveticaNeue-74" transform="translate(109.299988 0)"/>
      <use xlink:href="#HelveticaNeue-65" transform="translate(140.799973 0)"/>
      <use xlink:href="#HelveticaNeue-6e" transform="translate(194.499969 0)"/>
      <use xlink:href="#HelveticaNeue-63" transform="translate(250.09996 0)"/>
      <use xlink:href="#HelveticaNeue-79" transform="translate(303.799957 0)"/>
      <use xlink:href="#HelveticaNeue-20" transform="translate(353.799942 0)"/>
      <use xlink:href="#HelveticaNeue-28" transform="translate(381.59993 0)"/>
      <use xlink:href="#HelveticaNeue-6d" transform="translate(407.499924 0)"/>
      <use xlink:href="#HelveticaNeue-73" transform="translate(492.799911 0)"/>
      <use xlink:href="#HelveticaNeue-29" transform="translate(542.799896 0)"/>
     </g>
    </g>
   </g>
   <g id="line2d_31">
    <path d="M 83.158188 447.206825 
L 114.971063 445.979525 
L 146.783938 444.752225 
L 178.596812 443.524925 
L 210.409688 442.297625 
L 242.222563 441.070325 
L 274.035438 439.843025 
L 305.848313 438.615725 
L 337.661187 437.388425 
L 369.474063 436.161125 
L 401.286938 434.933825 
L 433.099812 433.706525 
L 464.912688 432.479225 
L 496.725563 431.251925 
L 528.538437 430.024625 
L 560.351313 428.797325 
L 592.164188 427.570025 
L 623.977062 426.342725 
L 655.789937 425.115425 
L 687.602813 423.888125 
" clip-path="url(#p60a132817f)" style="fill: none; stroke: #0000ff; stroke-width: 3; stroke-linecap: square"/>
    <defs>
     <path id="m97324abbcf" d="M 0 2.5 
C 0.663008 2.5 1.29895 2.236584 1.767767 1.767767 
C 2.236584 1.29895 2.5 0.663008 2.5 0 
C 2.5 -0.663008 2.236584 -1.29895 1.767767 -1.767767 
C 1.29895 -2.236584 0.663008 -2.5 0 -2.5 
C -0.663008 -2.5 -1.29895 -2.236584 -1.767767 -1.767767 
C -2.236584 -1.29895 -2.5 -0.663008 -2.5 0 
C -2.5 0.663008 -2.236584 1.29895 -1.767767 1.767767 
C -1.29895 2.236584 -0.663008 2.5 0 2.5 
z
" style="stroke: #0000ff"/>
    </defs>
    <g clip-path="url(#p60a132817f)">
     <use xlink:href="#m97324abbcf" x="83.158188" y="447.206825" style="fill: #0000ff; stroke: #0000ff"/>
     <use xlink:href="#m97324abbcf" x="114.971063" y="445.979525" style="fill: #0000ff; stroke: #0000ff"/>
     <use xlink:href="#m97324abbcf" x="146.783938" y="444.752225" style="fill: #0000ff; stroke: #0000ff"/>
     <use xlink:href="#m97324abbcf" x="178.596812" y="443.524925" style="fill: #0000ff; stroke: #0000ff"/>
     <use xlink:href="#m97324abbcf" x="210.409688" y="442.297625" style="fill: #0000ff; stroke: #0000ff"/>
     <use xlink:href="#m97324abbcf" x="242.222563" y="441.070325" style="fill: #0000ff; stroke: #0000ff"/>
     <use xlink:href="#m97324abbcf" x="274.035438" y="439.843025" style="fill: #0000ff; stroke: #0000ff"/>
     <use xlink:href="#m97324abbcf" x="305.848313" y="438.615725" style="fill: #0000ff; stroke: #0000ff"/>
     <use xlink:href="#m97324abbcf" x="337.661187" y="437.388425" style="fill: #0000ff; stroke: #0000ff"/>
     <use xlink:href="#m97324abbcf" x="369.474063" y="436.161125" style="fill: #0000ff; stroke: #0000ff"/>
     <use xlink:href="#m97324abbcf" x="401.286938" y="434.933825" style="fill: #0000ff; stroke: #0000ff"/>
     <use xlink:href="#m97324abbcf" x="433.099812" y="433.706525" style="fill: #0000ff; stroke: #0000ff"/>
     <use xlink:href="#m97324abbcf" x="464.912688" y="432.479225" style="fill: #0000ff; stroke: #0000ff"/>
     <use xlink:href="#m97324abbcf" x="496.725563" y="431.251925" style="fill: #0000ff; stroke: #0000ff"/>
     <use xlink:href="#m97324abbcf" x="528.538437" y="430.024625" style="fill: #0000ff; stroke: #0000ff"/>
     <use xlink:href="#m97324abbcf" x="560.351313" y="428.797325" style="fill: #0000ff; stroke: #0000ff"/>
     <use xlink:href="#m97324abbcf" x="592.164188" y="427.570025" style="fill: #0000ff; stroke: #0000ff"/>
     <use xlink:href="#m97324abbcf" x="623.977062" y="426.342725" style="fill: #0000ff; stroke: #0000ff"/>
     <use xlink:href="#m97324abbcf" x="655.789937" y="425.115425" style="fill: #0000ff; stroke: #0000ff"/>
     <use xlink:href="#m97324abbcf" x="687.602813" y="423.888125" style="fill: #0000ff; stroke: #0000ff"/>
    </g>
   </g>
   <g id="line2d_32">
    <path d="M 83.158188 448.5364 
L 114.971063 445.774975 
L 146.783938 441.1726 
L 178.596812 434.729275 
L 210.409688 426.445 
L 242.222563 416.319775 
L 274.035438 404.3536 
L 305.848313 390.546475 
L 337.661187 374.8984 
L 369.474063 357.409375 
L 401.286938 338.0794 
L 433.099812 316.908475 
L 464.912688 293.8966 
L 496.725563 269.043775 
L 528.538437 242.35 
L 560.351313 213.815275 
L 592.164188 183.4396 
L 623.977062 151.222975 
L 655.789937 117.1654 
L 687.602813 81.266875 
" clip-path="url(#p60a132817f)" style="fill: none; stroke: #ff0000; stroke-width: 3; stroke-linecap: square"/>
    <defs>
     <path id="m7ea63c9a6f" d="M -2.5 2.5 
L 2.5 2.5 
L 2.5 -2.5 
L -2.5 -2.5 
z
" style="stroke: #ff0000; stroke-linejoin: miter"/>
    </defs>
    <g clip-path="url(#p60a132817f)">
     <use xlink:href="#m7ea63c9a6f" x="83.158188" y="448.5364" style="fill: #ff0000; stroke: #ff0000; stroke-linejoin: miter"/>
     <use xlink:href="#m7ea63c9a6f" x="114.971063" y="445.774975" style="fill: #ff0000; stroke: #ff0000; stroke-linejoin: miter"/>
     <use xlink:href="#m7ea63c9a6f" x="146.783938" y="441.1726" style="fill: #ff0000; stroke: #ff0000; stroke-linejoin: miter"/>
     <use xlink:href="#m7ea63c9a6f" x="178.596812" y="434.729275" style="fill: #ff0000; stroke: #ff0000; stroke-linejoin: miter"/>
     <use xlink:href="#m7ea63c9a6f" x="210.409688" y="426.445" style="fill: #ff0000; stroke: #ff0000; stroke-linejoin: miter"/>
     <use xlink:href="#m7ea63c9a6f" x="242.222563" y="416.319775" style="fill: #ff0000; stroke: #ff0000; stroke-linejoin: miter"/>
     <use xlink:href="#m7ea63c9a6f" x="274.035438" y="404.3536" style="fill: #ff0000; stroke: #ff0000; stroke-linejoin: miter"/>
     <use xlink:href="#m7ea63c9a6f" x="305.848313" y="390.546475" style="fill: #ff0000; stroke: #ff0000; stroke-linejoin: miter"/>
     <use xlink:href="#m7ea63c9a6f" x="337.661187" y="374.8984" style="fill: #ff0000; stroke: #ff0000; stroke-linejoin: miter"/>
     <use xlink:href="#m7ea63c9a6f" x="369.474063" y="357.409375" style="fill: #ff0000; stroke: #ff0000; stroke-linejoin: miter"/>
     <use xlink:href="#m7ea63c9a6f" x="401.286938" y="338.0794" style="fill: #ff0000; stroke: #ff0000; stroke-linejoin: miter"/>
     <use xlink:href="#m7ea63c9a6f" x="433.099812" y="316.908475" style="fill: #ff0000; stroke: #ff0000; stroke-linejoin: miter"/>
     <use xlink:href="#m7ea63c9a6f" x="464.912688" y="293.8966" style="fill: #ff0000; stroke: #ff0000; stroke-linejoin: miter"/>
     <use xlink:href="#m7ea63c9a6f" x="496.725563" y="269.043775" style="fill: #ff0000; stroke: #ff0000; stroke-linejoin: miter"/>
     <use xlink:href="#m7ea63c9a6f" x="528.538437" y="242.35" style="fill: #ff0000; stroke: #ff0000; stroke-linejoin: miter"/>
     <use xlink:href="#m7ea63c9a6f" x="560.351313" y="213.815275" style="fill: #ff0000; stroke: #ff0000; stroke-linejoin: miter"/>
     <use xlink:href="#m7ea63c9a6f" x="592.164188" y="183.4396" style="fill: #ff0000; stroke: #ff0000; stroke-linejoin: miter"/>
     <use xlink:href="#m7ea63c9a6f" x="623.977062" y="151.222975" style="fill: #ff0000; stroke: #ff0000; stroke-linejoin: miter"/>
     <use xlink:href="#m7ea63c9a6f" x="655.789937" y="117.1654" style="fill: #ff0000; stroke: #ff0000; stroke-linejoin: miter"/>
     <use xlink:href="#m7ea63c9a6f" x="687.602813" y="81.266875" style="fill: #ff0000; stroke: #ff0000; stroke-linejoin: miter"/>
    </g>
   </g>
   <g id="patch_3">
    <path d="M 51.345313 449.456875 
L 51.345313 40.356875 
" style="fill: none; stroke: #000000; stroke-width: 0.8; stroke-linejoin: miter; stroke-linecap: square"/>
   </g>
   <g id="patch_4">
    <path d="M 51.345313 449.456875 
L 687.602813 449.456875 
" style="fill: none; stroke: #000000; stroke-width: 0.8; stroke-linejoin: miter; stroke-linecap: square"/>
   </g>
   <g id="patch_5">
    <path d="M 639.645674 393.141735 
Q 662.78271 407.975405 684.978538 422.205644 
" style="fill: none; stroke: #1f77b4; stroke-linecap: round"/>
    <path d="M 682.690617 418.363065 
L 684.978538 422.205644 
L 680.531722 421.730434 
" style="fill: none; stroke: #1f77b4; stroke-linecap: round"/>
   </g>
   <g id="text_18">
    <!-- XiuLian: 12.5ms -->
    <g style="fill: #1f77b4" transform="translate(592.164188 388.091875) scale(0.1 -0.1)">
     <defs>
      <path id="HelveticaNeue-58" d="M 1587 2349 
L 0 0 
L 678 0 
L 1946 1888 
L 3174 0 
L 3917 0 
L 2310 2349 
L 3821 4570 
L 3142 4570 
L 1952 2784 
L 813 4570 
L 83 4570 
L 1587 2349 
z
" transform="scale(0.015625)"/>
      <path id="HelveticaNeue-69" d="M 986 3904 
L 986 4570 
L 442 4570 
L 442 3904 
L 986 3904 
z
M 442 3309 
L 442 0 
L 986 0 
L 986 3309 
L 442 3309 
z
" transform="scale(0.015625)"/>
      <path id="HelveticaNeue-3a" d="M 1242 2598 
L 1242 3309 
L 531 3309 
L 531 2598 
L 1242 2598 
z
M 531 710 
L 531 0 
L 1242 0 
L 1242 710 
L 531 710 
z
" transform="scale(0.015625)"/>
      <path id="HelveticaNeue-2e" d="M 531 710 
L 531 0 
L 1242 0 
L 1242 710 
L 531 710 
z
" transform="scale(0.015625)"/>
     </defs>
     <use xlink:href="#HelveticaNeue-58"/>
     <use xlink:href="#HelveticaNeue-69" transform="translate(61.099991 0)"/>
     <use xlink:href="#HelveticaNeue-75" transform="translate(83.299988 0)"/>
     <use xlink:href="#HelveticaNeue-4c" transform="translate(138.899979 0)"/>
     <use xlink:href="#HelveticaNeue-69" transform="translate(194.499969 0)"/>
     <use xlink:href="#HelveticaNeue-61" transform="translate(216.699966 0)"/>
     <use xlink:href="#HelveticaNeue-6e" transform="translate(270.399963 0)"/>
     <use xlink:href="#HelveticaNeue-3a" transform="translate(325.999954 0)"/>
     <use xlink:href="#HelveticaNeue-20" transform="translate(353.799942 0)"/>
     <use xlink:href="#HelveticaNeue-31" transform="translate(381.59993 0)"/>
     <use xlink:href="#HelveticaNeue-32" transform="translate(437.199921 0)"/>
     <use xlink:href="#HelveticaNeue-2e" transform="translate(492.799911 0)"/>
     <use xlink:href="#HelveticaNeue-35" transform="translate(520.599899 0)"/>
     <use xlink:href="#HelveticaNeue-6d" transform="translate(576.19989 0)"/>
     <use xlink:href="#HelveticaNeue-73" transform="translate(661.499878 0)"/>
    </g>
   </g>
   <g id="patch_6">
    <path d="M 611.995179 132.369918 
Q 648.969499 107.379052 685.017524 83.014266 
" style="fill: none; stroke: #d62728; stroke-linecap: round"/>
    <path d="M 680.583542 83.597194 
L 685.017524 83.014266 
L 682.823478 86.911208 
" style="fill: none; stroke: #d62728; stroke-linecap: round"/>
   </g>
   <g id="text_19">
    <!-- Transformer: 180s -->
    <g style="fill: #d62728" transform="translate(560.351313 142.631875) scale(0.1 -0.1)">
     <defs>
      <path id="HelveticaNeue-54" d="M 1536 4058 
L 1536 0 
L 2144 0 
L 2144 4058 
L 3667 4058 
L 3667 4570 
L 13 4570 
L 13 4058 
L 1536 4058 
z
" transform="scale(0.015625)"/>
      <path id="HelveticaNeue-72" d="M 390 3309 
L 390 0 
L 934 0 
L 934 1472 
Q 934 1792 998 2038 
Q 1062 2285 1203 2457 
Q 1344 2630 1574 2720 
Q 1805 2810 2131 2810 
L 2131 3386 
Q 1690 3398 1402 3206 
Q 1114 3014 915 2611 
L 902 2611 
L 902 3309 
L 390 3309 
z
" transform="scale(0.015625)"/>
      <path id="HelveticaNeue-66" d="M 634 2829 
L 634 0 
L 1178 0 
L 1178 2829 
L 1818 2829 
L 1818 3309 
L 1178 3309 
L 1178 3770 
Q 1178 3987 1286 4064 
Q 1395 4141 1594 4141 
Q 1664 4141 1747 4131 
Q 1830 4122 1901 4096 
L 1901 4570 
Q 1824 4595 1725 4608 
Q 1626 4621 1549 4621 
Q 1101 4621 867 4413 
Q 634 4205 634 3802 
L 634 3309 
L 77 3309 
L 77 2829 
L 634 2829 
z
" transform="scale(0.015625)"/>
     </defs>
     <use xlink:href="#HelveticaNeue-54"/>
     <use xlink:href="#HelveticaNeue-72" transform="translate(48.149994 0)"/>
     <use xlink:href="#HelveticaNeue-61" transform="translate(81.449982 0)"/>
     <use xlink:href="#HelveticaNeue-6e" transform="translate(135.149979 0)"/>
     <use xlink:href="#HelveticaNeue-73" transform="translate(190.749969 0)"/>
     <use xlink:href="#HelveticaNeue-66" transform="translate(240.749954 0)"/>
     <use xlink:href="#HelveticaNeue-6f" transform="translate(270.349945 0)"/>
     <use xlink:href="#HelveticaNeue-72" transform="translate(327.749939 0)"/>
     <use xlink:href="#HelveticaNeue-6d" transform="translate(361.049927 0)"/>
     <use xlink:href="#HelveticaNeue-65" transform="translate(446.349915 0)"/>
     <use xlink:href="#HelveticaNeue-72" transform="translate(500.049911 0)"/>
     <use xlink:href="#HelveticaNeue-3a" transform="translate(533.349899 0)"/>
     <use xlink:href="#HelveticaNeue-20" transform="translate(561.149887 0)"/>
     <use xlink:href="#HelveticaNeue-31" transform="translate(588.949875 0)"/>
     <use xlink:href="#HelveticaNeue-38" transform="translate(644.549866 0)"/>
     <use xlink:href="#HelveticaNeue-30" transform="translate(700.149857 0)"/>
     <use xlink:href="#HelveticaNeue-73" transform="translate(755.749847 0)"/>
    </g>
   </g>
   <g id="text_20">
    <!-- Complexity Scaling: O(n) vs O(n²) -->
    <g transform="translate(236.785938 20.356875) scale(0.18 -0.18)">
     <defs>
      <path id="HelveticaNeue-43" d="M 3712 3194 
L 4320 3194 
Q 4269 3558 4102 3836 
Q 3936 4115 3686 4300 
Q 3437 4486 3117 4582 
Q 2797 4678 2438 4678 
Q 1914 4678 1507 4489 
Q 1101 4301 829 3974 
Q 557 3648 416 3209 
Q 275 2771 275 2272 
Q 275 1773 406 1337 
Q 538 902 800 582 
Q 1062 262 1459 80 
Q 1856 -102 2387 -102 
Q 3264 -102 3769 378 
Q 4275 858 4365 1722 
L 3757 1722 
Q 3738 1440 3642 1197 
Q 3546 954 3376 778 
Q 3206 602 2972 502 
Q 2739 403 2438 403 
Q 2029 403 1734 556 
Q 1440 710 1251 969 
Q 1062 1229 972 1577 
Q 883 1926 883 2317 
Q 883 2675 972 3008 
Q 1062 3341 1251 3600 
Q 1440 3859 1731 4012 
Q 2022 4166 2432 4166 
Q 2912 4166 3261 3923 
Q 3610 3680 3712 3194 
z
" transform="scale(0.015625)"/>
      <path id="HelveticaNeue-6c" d="M 442 4570 
L 442 0 
L 986 0 
L 986 4570 
L 442 4570 
z
" transform="scale(0.015625)"/>
      <path id="HelveticaNeue-78" d="M 1299 1741 
L 58 0 
L 717 0 
L 1638 1370 
L 2560 0 
L 3258 0 
L 1978 1786 
L 3117 3309 
L 2464 3309 
L 1638 2150 
L 845 3309 
L 147 3309 
L 1299 1741 
z
" transform="scale(0.015625)"/>
      <path id="HelveticaNeue-53" d="M 3142 3232 
L 3718 3232 
Q 3706 3610 3574 3882 
Q 3443 4154 3216 4333 
Q 2989 4512 2688 4595 
Q 2387 4678 2035 4678 
Q 1722 4678 1424 4598 
Q 1126 4518 892 4355 
Q 659 4192 518 3939 
Q 378 3686 378 3341 
Q 378 3027 502 2819 
Q 627 2611 835 2480 
Q 1043 2349 1305 2269 
Q 1568 2189 1840 2128 
Q 2112 2067 2374 2009 
Q 2637 1952 2845 1859 
Q 3053 1766 3177 1619 
Q 3302 1472 3302 1235 
Q 3302 986 3200 826 
Q 3098 666 2931 573 
Q 2765 480 2557 441 
Q 2349 403 2144 403 
Q 1888 403 1645 467 
Q 1402 531 1219 665 
Q 1037 800 925 1008 
Q 813 1216 813 1504 
L 237 1504 
Q 237 1088 387 784 
Q 538 480 797 285 
Q 1056 90 1398 -6 
Q 1741 -102 2125 -102 
Q 2438 -102 2755 -28 
Q 3072 45 3328 208 
Q 3584 371 3747 630 
Q 3910 890 3910 1254 
Q 3910 1594 3785 1818 
Q 3661 2042 3453 2189 
Q 3245 2336 2982 2422 
Q 2720 2509 2448 2573 
Q 2176 2637 1913 2691 
Q 1651 2746 1443 2829 
Q 1235 2912 1110 3043 
Q 986 3174 986 3386 
Q 986 3610 1072 3760 
Q 1158 3910 1302 4000 
Q 1446 4090 1632 4128 
Q 1818 4166 2010 4166 
Q 2483 4166 2787 3945 
Q 3091 3725 3142 3232 
z
" transform="scale(0.015625)"/>
      <path id="HelveticaNeue-4f" d="M 851 2285 
Q 851 2630 940 2966 
Q 1030 3302 1222 3571 
Q 1414 3840 1715 4003 
Q 2016 4166 2432 4166 
Q 2848 4166 3149 4003 
Q 3450 3840 3642 3571 
Q 3834 3302 3923 2966 
Q 4013 2630 4013 2285 
Q 4013 1939 3923 1603 
Q 3834 1267 3642 998 
Q 3450 730 3149 566 
Q 2848 403 2432 403 
Q 2016 403 1715 566 
Q 1414 730 1222 998 
Q 1030 1267 940 1603 
Q 851 1939 851 2285 
z
M 243 2285 
Q 243 1818 380 1386 
Q 518 954 793 621 
Q 1069 288 1478 93 
Q 1888 -102 2432 -102 
Q 2976 -102 3385 93 
Q 3795 288 4070 621 
Q 4346 954 4483 1386 
Q 4621 1818 4621 2285 
Q 4621 2752 4483 3184 
Q 4346 3616 4070 3949 
Q 3795 4282 3385 4480 
Q 2976 4678 2432 4678 
Q 1888 4678 1478 4480 
Q 1069 4282 793 3949 
Q 518 3616 380 3184 
Q 243 2752 243 2285 
z
" transform="scale(0.015625)"/>
      <path id="HelveticaNeue-76" d="M 1901 0 
L 3110 3309 
L 2541 3309 
L 1638 550 
L 1626 550 
L 698 3309 
L 90 3309 
L 1318 0 
L 1901 0 
z
" transform="scale(0.015625)"/>
      <path id="HelveticaNeue-b2" d="M 141 3552 
L 576 3552 
Q 576 3802 694 3994 
Q 813 4186 1101 4186 
Q 1325 4186 1478 4064 
Q 1632 3942 1632 3738 
Q 1632 3597 1587 3488 
Q 1542 3379 1449 3286 
Q 1357 3194 1216 3104 
Q 1075 3014 890 2906 
Q 736 2816 595 2720 
Q 454 2624 345 2499 
Q 237 2374 169 2204 
Q 102 2035 90 1792 
L 2029 1792 
L 2029 2144 
L 525 2144 
Q 550 2246 630 2329 
Q 710 2413 822 2489 
Q 934 2566 1072 2643 
Q 1210 2720 1344 2803 
Q 1478 2880 1609 2969 
Q 1741 3059 1840 3168 
Q 1939 3277 2003 3414 
Q 2067 3552 2067 3731 
Q 2067 3923 1993 4073 
Q 1920 4224 1789 4326 
Q 1658 4429 1485 4483 
Q 1312 4538 1120 4538 
Q 672 4538 406 4266 
Q 141 3994 141 3552 
z
" transform="scale(0.015625)"/>
     </defs>
     <use xlink:href="#HelveticaNeue-43"/>
     <use xlink:href="#HelveticaNeue-6f" transform="translate(72.199982 0)"/>
     <use xlink:href="#HelveticaNeue-6d" transform="translate(129.599976 0)"/>
     <use xlink:href="#HelveticaNeue-70" transform="translate(214.899963 0)"/>
     <use xlink:href="#HelveticaNeue-6c" transform="translate(274.199951 0)"/>
     <use xlink:href="#HelveticaNeue-65" transform="translate(296.399948 0)"/>
     <use xlink:href="#HelveticaNeue-78" transform="translate(350.099945 0)"/>
     <use xlink:href="#HelveticaNeue-69" transform="translate(401.899933 0)"/>
     <use xlink:href="#HelveticaNeue-74" transform="translate(424.09993 0)"/>
     <use xlink:href="#HelveticaNeue-79" transform="translate(455.599915 0)"/>
     <use xlink:href="#HelveticaNeue-20" transform="translate(505.599899 0)"/>
     <use xlink:href="#HelveticaNeue-53" transform="translate(533.399887 0)"/>
     <use xlink:href="#HelveticaNeue-63" transform="translate(598.199875 0)"/>
     <use xlink:href="#HelveticaNeue-61" transform="translate(651.899872 0)"/>
     <use xlink:href="#HelveticaNeue-6c" transform="translate(705.599869 0)"/>
     <use xlink:href="#HelveticaNeue-69" transform="translate(727.799866 0)"/>
     <use xlink:href="#HelveticaNeue-6e" transform="translate(749.999863 0)"/>
     <use xlink:href="#HelveticaNeue-67" transform="translate(805.599854 0)"/>
     <use xlink:href="#HelveticaNeue-3a" transform="translate(862.999847 0)"/>
     <use xlink:href="#HelveticaNeue-20" transform="translate(890.799835 0)"/>
     <use xlink:href="#HelveticaNeue-4f" transform="translate(918.599823 0)"/>
     <use xlink:href="#HelveticaNeue-28" transform="translate(994.599808 0)"/>
     <use xlink:href="#HelveticaNeue-6e" transform="translate(1020.499802 0)"/>
     <use xlink:href="#HelveticaNeue-29" transform="translate(1076.099792 0)"/>
     <use xlink:href="#HelveticaNeue-20" transform="translate(1101.999786 0)"/>
     <use xlink:href="#HelveticaNeue-76" transform="translate(1129.799774 0)"/>
     <use xlink:href="#HelveticaNeue-73" transform="translate(1179.799759 0)"/>
     <use xlink:href="#HelveticaNeue-20" transform="translate(1229.799744 0)"/>
     <use xlink:href="#HelveticaNeue-4f" transform="translate(1257.599731 0)"/>
     <use xlink:href="#HelveticaNeue-28" transform="translate(1333.599716 0)"/>
     <use xlink:href="#HelveticaNeue-6e" transform="translate(1359.49971 0)"/>
     <use xlink:href="#HelveticaNeue-b2" transform="translate(1415.099701 0)"/>
     <use xlink:href="#HelveticaNeue-29" transform="translate(1448.399689 0)"/>
    </g>
   </g>
   <g id="legend_1">
    <g id="patch_7">
     <path d="M 59.745313 84.228125 
L 191.486563 84.228125 
Q 193.886563 84.228125 193.886563 81.828125 
L 193.886563 48.756875 
Q 193.886563 46.356875 191.486563 46.356875 
L 59.745313 46.356875 
Q 57.345313 46.356875 57.345313 48.756875 
L 57.345313 81.828125 
Q 57.345313 84.228125 59.745313 84.228125 
z
" style="fill: #fafafa; opacity: 0.8; stroke: #cccccc; stroke-linejoin: miter"/>
    </g>
    <g id="line2d_33">
     <path d="M 62.145313 55.728125 
L 74.145313 55.728125 
L 86.145313 55.728125 
" style="fill: none; stroke: #0000ff; stroke-width: 3; stroke-linecap: square"/>
     <g>
      <use xlink:href="#m97324abbcf" x="74.145313" y="55.728125" style="fill: #0000ff; stroke: #0000ff"/>
     </g>
    </g>
    <g id="text_21">
     <!-- XiuLian O(n) -->
     <g transform="translate(95.745313 59.928125) scale(0.12 -0.12)">
      <use xlink:href="#HelveticaNeue-58"/>
      <use xlink:href="#HelveticaNeue-69" transform="translate(61.099991 0)"/>
      <use xlink:href="#HelveticaNeue-75" transform="translate(83.299988 0)"/>
      <use xlink:href="#HelveticaNeue-4c" transform="translate(138.899979 0)"/>
      <use xlink:href="#HelveticaNeue-69" transform="translate(194.499969 0)"/>
      <use xlink:href="#HelveticaNeue-61" transform="translate(216.699966 0)"/>
      <use xlink:href="#HelveticaNeue-6e" transform="translate(270.399963 0)"/>
      <use xlink:href="#HelveticaNeue-20" transform="translate(325.999954 0)"/>
      <use xlink:href="#HelveticaNeue-4f" transform="translate(353.799942 0)"/>
      <use xlink:href="#HelveticaNeue-28" transform="translate(429.799927 0)"/>
      <use xlink:href="#HelveticaNeue-6e" transform="translate(455.699921 0)"/>
      <use xlink:href="#HelveticaNeue-29" transform="translate(511.299911 0)"/>
     </g>
    </g>
    <g id="line2d_34">
     <path d="M 62.145313 72.86375 
L 74.145313 72.86375 
L 86.145313 72.86375 
" style="fill: none; stroke: #ff0000; stroke-width: 3; stroke-linecap: square"/>
     <g>
      <use xlink:href="#m7ea63c9a6f" x="74.145313" y="72.86375" style="fill: #ff0000; stroke: #ff0000; stroke-linejoin: miter"/>
     </g>
    </g>
    <g id="text_22">
     <!-- Transformer O(n²) -->
     <g transform="translate(95.745313 77.06375) scale(0.12 -0.12)">
      <use xlink:href="#HelveticaNeue-54"/>
      <use xlink:href="#HelveticaNeue-72" transform="translate(48.149994 0)"/>
      <use xlink:href="#HelveticaNeue-61" transform="translate(81.449982 0)"/>
      <use xlink:href="#HelveticaNeue-6e" transform="translate(135.149979 0)"/>
      <use xlink:href="#HelveticaNeue-73" transform="translate(190.749969 0)"/>
      <use xlink:href="#HelveticaNeue-66" transform="translate(240.749954 0)"/>
      <use xlink:href="#HelveticaNeue-6f" transform="translate(270.349945 0)"/>
      <use xlink:href="#HelveticaNeue-72" transform="translate(327.749939 0)"/>
      <use xlink:href="#HelveticaNeue-6d" transform="translate(361.049927 0)"/>
      <use xlink:href="#HelveticaNeue-65" transform="translate(446.349915 0)"/>
      <use xlink:href="#HelveticaNeue-72" transform="translate(500.049911 0)"/>
      <use xlink:href="#HelveticaNeue-20" transform="translate(533.349899 0)"/>
      <use xlink:href="#HelveticaNeue-4f" transform="translate(561.149887 0)"/>
      <use xlink:href="#HelveticaNeue-28" transform="translate(637.149872 0)"/>
      <use xlink:href="#HelveticaNeue-6e" transform="translate(663.049866 0)"/>
      <use xlink:href="#HelveticaNeue-b2" transform="translate(718.649857 0)"/>
      <use xlink:href="#HelveticaNeue-29" transform="translate(751.949844 0)"/>
     </g>
    </g>
   </g>
  </g>
 </g>
 <defs>
  <clipPath id="p60a132817f">
   <rect x="51.345313" y="40.356875" width="636.2575" height="409.1"/>
  </clipPath>
 </defs>
</svg>
