<svg xmlns="http://www.w3.org/2000/svg" viewBox="0 0 800 400" width="800" height="400">
<style>
  .title { font: bold 18px sans-serif; fill: #333; }
  .axis-label { font: 14px sans-serif; fill: #666; }
  .tick-label { font: 12px sans-serif; fill: #333; }
  .bar-label { font: 11px sans-serif; fill: #333; text-anchor: middle; }
  .value-label { font: 10px sans-serif; fill: #fff; text-anchor: middle; }
</style>
<text x="400.0" y="30" text-anchor="middle" class="title">Inference Latency Comparison (log scale)</text>
<line x1="80" y1="320" x2="760" y2="320" stroke="#ccc" stroke-width="1"/>
<line x1="80" y1="60" x2="80" y2="320" stroke="#ccc" stroke-width="1"/>
<line x1="75" y1="320.0" x2="80" y2="320.0" stroke="#ccc"/>
<text x="70" y="324.0" text-anchor="end" class="tick-label">0.0</text>
<line x1="75" y1="268.0" x2="80" y2="268.0" stroke="#ccc"/>
<text x="70" y="272.0" text-anchor="end" class="tick-label">0.1</text>
<line x1="75" y1="216.0" x2="80" y2="216.0" stroke="#ccc"/>
<text x="70" y="220.0" text-anchor="end" class="tick-label">0.1</text>
<line x1="75" y1="164.0" x2="80" y2="164.0" stroke="#ccc"/>
<text x="70" y="168.0" text-anchor="end" class="tick-label">0.2</text>
<line x1="75" y1="112.0" x2="80" y2="112.0" stroke="#ccc"/>
<text x="70" y="116.0" text-anchor="end" class="tick-label">0.2</text>
<line x1="75" y1="60.0" x2="80" y2="60.0" stroke="#ccc"/>
<text x="70" y="64.0" text-anchor="end" class="tick-label">0.2</text>
<text x="20" y="190.0" text-anchor="middle" class="axis-label" transform="rotate(-90, 20, 190.0)">Latency (ms)</text>
<rect x="94.16666666666667" y="320.0" width="56.666666666666664" height="0.0" fill="#607D8B" rx="2"/>
<text x="122.5" y="340" class="bar-label">Perceptron</text>
<rect x="179.16666666666666" y="276.6666666666667" width="56.666666666666664" height="43.333333333333336" fill="#4CAF50" rx="2"/>
<text x="207.5" y="291.6666666666667" class="value-label">0.05</text>
<text x="207.5" y="340" class="bar-label">k-NN</text>
<rect x="264.1666666666667" y="309.1666666666667" width="56.666666666666664" height="10.833333333333334" fill="#00BCD4" rx="2"/>
<text x="292.5" y="340" class="bar-label">Naive</text>
<text x="292.5" y="352" class="bar-label">Bayes</text>
<rect x="349.1666666666667" y="222.5" width="56.666666666666664" height="97.50000000000001" fill="#FF9800" rx="2"/>
<text x="377.5" y="237.5" class="value-label">0.10</text>
<text x="377.5" y="340" class="bar-label">Decision</text>
<text x="377.5" y="352" class="bar-label">Tree</text>
<rect x="434.1666666666667" y="60.0" width="56.666666666666664" height="260.0" fill="#795548" rx="2"/>
<text x="462.5" y="75.0" class="value-label">0.25</text>
<text x="462.5" y="340" class="bar-label">Random</text>
<text x="462.5" y="352" class="bar-label">Forest</text>
<rect x="519.1666666666666" y="168.33333333333334" width="56.666666666666664" height="151.66666666666666" fill="#9C27B0" rx="2"/>
<text x="547.5" y="183.33333333333334" class="value-label">0.15</text>
<text x="547.5" y="340" class="bar-label">SVM</text>
<rect x="604.1666666666666" y="222.5" width="56.666666666666664" height="97.50000000000001" fill="#009688" rx="2"/>
<text x="632.5" y="237.5" class="value-label">0.10</text>
<text x="632.5" y="340" class="bar-label">Knowledge</text>
<text x="632.5" y="352" class="bar-label">Graph</text>
<rect x="689.1666666666666" y="244.16666666666666" width="56.666666666666664" height="75.83333333333334" fill="#CDDC39" rx="2"/>
<text x="717.5" y="259.16666666666663" class="value-label">0.08</text>
<text x="717.5" y="340" class="bar-label">Fuzzy</text>
<text x="717.5" y="352" class="bar-label">Logic</text>
</svg>