<svg xmlns="http://www.w3.org/2000/svg" viewBox="0 0 440 255">
<style>
  .title { font: bold 16px sans-serif; fill: #333; }
  .header { font: bold 12px sans-serif; fill: #fff; }
  .cell { font: 11px sans-serif; fill: #333; }
</style>
<text x="220.0" y="25" text-anchor="middle" class="title">Iris Dataset Results</text>
<rect x="20" y="40" width="100" height="30" fill="#333"/>
<text x="70.0" y="60" text-anchor="middle" class="header">method</text>
<rect x="120" y="40" width="100" height="30" fill="#333"/>
<text x="170.0" y="60" text-anchor="middle" class="header">accuracy</text>
<rect x="220" y="40" width="100" height="30" fill="#333"/>
<text x="270.0" y="60" text-anchor="middle" class="header">f1_score</text>
<rect x="320" y="40" width="100" height="30" fill="#333"/>
<text x="370.0" y="60" text-anchor="middle" class="header">inference_time_ms</text>
<rect x="20" y="70" width="100" height="30" fill="#f5f5f5" stroke="#ddd"/>
<text x="70.0" y="88" text-anchor="middle" class="cell">k-NN</text>
<rect x="120" y="70" width="100" height="30" fill="#f5f5f5" stroke="#ddd"/>
<text x="170.0" y="88" text-anchor="middle" class="cell">96.70</text>
<rect x="220" y="70" width="100" height="30" fill="#f5f5f5" stroke="#ddd"/>
<text x="270.0" y="88" text-anchor="middle" class="cell">0.97</text>
<rect x="320" y="70" width="100" height="30" fill="#f5f5f5" stroke="#ddd"/>
<text x="370.0" y="88" text-anchor="middle" class="cell">0.15</text>
<rect x="20" y="100" width="100" height="30" fill="#fff" stroke="#ddd"/>
<text x="70.0" y="118" text-anchor="middle" class="cell">SVM</text>
<rect x="120" y="100" width="100" height="30" fill="#fff" stroke="#ddd"/>
<text x="170.0" y="118" text-anchor="middle" class="cell">96.70</text>
<rect x="220" y="100" width="100" height="30" fill="#fff" stroke="#ddd"/>
<text x="270.0" y="118" text-anchor="middle" class="cell">0.97</text>
<rect x="320" y="100" width="100" height="30" fill="#fff" stroke="#ddd"/>
<text x="370.0" y="118" text-anchor="middle" class="cell">0.12</text>
<rect x="20" y="130" width="100" height="30" fill="#f5f5f5" stroke="#ddd"/>
<text x="70.0" y="148" text-anchor="middle" class="cell">Decision Tre</text>
<rect x="120" y="130" width="100" height="30" fill="#f5f5f5" stroke="#ddd"/>
<text x="170.0" y="148" text-anchor="middle" class="cell">93.30</text>
<rect x="220" y="130" width="100" height="30" fill="#f5f5f5" stroke="#ddd"/>
<text x="270.0" y="148" text-anchor="middle" class="cell">0.93</text>
<rect x="320" y="130" width="100" height="30" fill="#f5f5f5" stroke="#ddd"/>
<text x="370.0" y="148" text-anchor="middle" class="cell">0.08</text>
<rect x="20" y="160" width="100" height="30" fill="#fff" stroke="#ddd"/>
<text x="70.0" y="178" text-anchor="middle" class="cell">Naive Bayes</text>
<rect x="120" y="160" width="100" height="30" fill="#fff" stroke="#ddd"/>
<text x="170.0" y="178" text-anchor="middle" class="cell">93.30</text>
<rect x="220" y="160" width="100" height="30" fill="#fff" stroke="#ddd"/>
<text x="270.0" y="178" text-anchor="middle" class="cell">0.93</text>
<rect x="320" y="160" width="100" height="30" fill="#fff" stroke="#ddd"/>
<text x="370.0" y="178" text-anchor="middle" class="cell">0.12</text>
<rect x="20" y="190" width="100" height="30" fill="#f5f5f5" stroke="#ddd"/>
<text x="70.0" y="208" text-anchor="middle" class="cell">Random Fores</text>
<rect x="120" y="190" width="100" height="30" fill="#f5f5f5" stroke="#ddd"/>
<text x="170.0" y="208" text-anchor="middle" class="cell">95.30</text>
<rect x="220" y="190" width="100" height="30" fill="#f5f5f5" stroke="#ddd"/>
<text x="270.0" y="208" text-anchor="middle" class="cell">0.95</text>
<rect x="320" y="190" width="100" height="30" fill="#f5f5f5" stroke="#ddd"/>
<text x="370.0" y="208" text-anchor="middle" class="cell">0.06</text>
</svg>