<svg xmlns="http://www.w3.org/2000/svg" viewBox="0 0 950 500" width="950" height="500">
<style>
  .title { font: bold 20px "Helvetica Neue", Arial, sans-serif; fill: #1a1a1a; }
  .header-text { font: bold 12px "Helvetica Neue", Arial, sans-serif; fill: #fff; }
  .cell-text { font: 12px "Helvetica Neue", Arial, sans-serif; fill: #333; }
  .cell-text-highlight { font: bold 12px "Helvetica Neue", Arial, sans-serif; fill: #1f77b4; }
  .cell-text-llm { font: 12px "Helvetica Neue", Arial, sans-serif; fill: #d62728; }
</style>
<rect width="100%" height="100%" fill="#fff"/>
<text x="475.0" y="40" text-anchor="middle" class="title">Table I: Performance Comparison of AI Methods</text>
<rect x="40" y="80" width="130" height="45" fill="#2c3e50" stroke="#fff" stroke-width="1"/>
<text x="105.0" y="108" text-anchor="middle" class="header-text">Method</text>
<rect x="170" y="80" width="100" height="45" fill="#2c3e50" stroke="#fff" stroke-width="1"/>
<text x="220.0" y="108" text-anchor="middle" class="header-text">Accuracy</text>
<rect x="270" y="80" width="110" height="45" fill="#2c3e50" stroke="#fff" stroke-width="1"/>
<text x="325.0" y="108" text-anchor="middle" class="header-text">Latency</text>
<rect x="380" y="80" width="100" height="45" fill="#2c3e50" stroke="#fff" stroke-width="1"/>
<text x="430.0" y="108" text-anchor="middle" class="header-text">Memory</text>
<rect x="480" y="80" width="95" height="45" fill="#2c3e50" stroke="#fff" stroke-width="1"/>
<text x="527.5" y="108" text-anchor="middle" class="header-text">Interpret.</text>
<rect x="575" y="80" width="70" height="45" fill="#2c3e50" stroke="#fff" stroke-width="1"/>
<text x="610.0" y="108" text-anchor="middle" class="header-text">Ref.</text>
<rect x="40" y="125" width="130" height="38" fill="#f8f9fa" stroke="#dee2e6" stroke-width="1"/>
<text x="50" y="149" text-anchor="start" class="cell-text-highlight">XiuLian</text>
<rect x="170" y="125" width="100" height="38" fill="#f8f9fa" stroke="#dee2e6" stroke-width="1"/>
<text x="220.0" y="149" text-anchor="middle" class="cell-text-highlight">87.5%</text>
<rect x="270" y="125" width="110" height="38" fill="#f8f9fa" stroke="#dee2e6" stroke-width="1"/>
<text x="325.0" y="149" text-anchor="middle" class="cell-text-highlight">0.01 ms</text>
<rect x="380" y="125" width="100" height="38" fill="#f8f9fa" stroke="#dee2e6" stroke-width="1"/>
<text x="430.0" y="149" text-anchor="middle" class="cell-text-highlight">1.8 MB</text>
<rect x="480" y="125" width="95" height="38" fill="#f8f9fa" stroke="#dee2e6" stroke-width="1"/>
<text x="527.5" y="149" text-anchor="middle" class="cell-text-highlight">95%</text>
<rect x="575" y="125" width="70" height="38" fill="#f8f9fa" stroke="#dee2e6" stroke-width="1"/>
<text x="610.0" y="149" text-anchor="middle" class="cell-text-highlight">This work</text>
<rect x="40" y="163" width="130" height="38" fill="#fff" stroke="#dee2e6" stroke-width="1"/>
<text x="50" y="187" text-anchor="start" class="cell-text">k-NN [6]</text>
<rect x="170" y="163" width="100" height="38" fill="#fff" stroke="#dee2e6" stroke-width="1"/>
<text x="220.0" y="187" text-anchor="middle" class="cell-text">96.5%</text>
<rect x="270" y="163" width="110" height="38" fill="#fff" stroke="#dee2e6" stroke-width="1"/>
<text x="325.0" y="187" text-anchor="middle" class="cell-text">0.05 ms</text>
<rect x="380" y="163" width="100" height="38" fill="#fff" stroke="#dee2e6" stroke-width="1"/>
<text x="430.0" y="187" text-anchor="middle" class="cell-text">0.5 MB</text>
<rect x="480" y="163" width="95" height="38" fill="#fff" stroke="#dee2e6" stroke-width="1"/>
<text x="527.5" y="187" text-anchor="middle" class="cell-text">80%</text>
<rect x="575" y="163" width="70" height="38" fill="#fff" stroke="#dee2e6" stroke-width="1"/>
<text x="610.0" y="187" text-anchor="middle" class="cell-text">Cover & Hart</text>
<rect x="40" y="201" width="130" height="38" fill="#f8f9fa" stroke="#dee2e6" stroke-width="1"/>
<text x="50" y="225" text-anchor="start" class="cell-text">SVM [5]</text>
<rect x="170" y="201" width="100" height="38" fill="#f8f9fa" stroke="#dee2e6" stroke-width="1"/>
<text x="220.0" y="225" text-anchor="middle" class="cell-text">96.8%</text>
<rect x="270" y="201" width="110" height="38" fill="#f8f9fa" stroke="#dee2e6" stroke-width="1"/>
<text x="325.0" y="225" text-anchor="middle" class="cell-text">0.15 ms</text>
<rect x="380" y="201" width="100" height="38" fill="#f8f9fa" stroke="#dee2e6" stroke-width="1"/>
<text x="430.0" y="225" text-anchor="middle" class="cell-text">0.8 MB</text>
<rect x="480" y="201" width="95" height="38" fill="#f8f9fa" stroke="#dee2e6" stroke-width="1"/>
<text x="527.5" y="225" text-anchor="middle" class="cell-text">70%</text>
<rect x="575" y="201" width="70" height="38" fill="#f8f9fa" stroke="#dee2e6" stroke-width="1"/>
<text x="610.0" y="225" text-anchor="middle" class="cell-text">Cortes & Vapnik</text>
<rect x="40" y="239" width="130" height="38" fill="#fff" stroke="#dee2e6" stroke-width="1"/>
<text x="50" y="263" text-anchor="start" class="cell-text">Decision Tree [22]</text>
<rect x="170" y="239" width="100" height="38" fill="#fff" stroke="#dee2e6" stroke-width="1"/>
<text x="220.0" y="263" text-anchor="middle" class="cell-text">91.8%</text>
<rect x="270" y="239" width="110" height="38" fill="#fff" stroke="#dee2e6" stroke-width="1"/>
<text x="325.0" y="263" text-anchor="middle" class="cell-text">0.10 ms</text>
<rect x="380" y="239" width="100" height="38" fill="#fff" stroke="#dee2e6" stroke-width="1"/>
<text x="430.0" y="263" text-anchor="middle" class="cell-text">0.3 MB</text>
<rect x="480" y="239" width="95" height="38" fill="#fff" stroke="#dee2e6" stroke-width="1"/>
<text x="527.5" y="263" text-anchor="middle" class="cell-text">95%</text>
<rect x="575" y="239" width="70" height="38" fill="#fff" stroke="#dee2e6" stroke-width="1"/>
<text x="610.0" y="263" text-anchor="middle" class="cell-text">Quinlan</text>
<rect x="40" y="277" width="130" height="38" fill="#f8f9fa" stroke="#dee2e6" stroke-width="1"/>
<text x="50" y="301" text-anchor="start" class="cell-text">Random Forest [3]</text>
<rect x="170" y="277" width="100" height="38" fill="#f8f9fa" stroke="#dee2e6" stroke-width="1"/>
<text x="220.0" y="301" text-anchor="middle" class="cell-text">96.1%</text>
<rect x="270" y="277" width="110" height="38" fill="#f8f9fa" stroke="#dee2e6" stroke-width="1"/>
<text x="325.0" y="301" text-anchor="middle" class="cell-text">0.25 ms</text>
<rect x="380" y="277" width="100" height="38" fill="#f8f9fa" stroke="#dee2e6" stroke-width="1"/>
<text x="430.0" y="301" text-anchor="middle" class="cell-text">1.2 MB</text>
<rect x="480" y="277" width="95" height="38" fill="#f8f9fa" stroke="#dee2e6" stroke-width="1"/>
<text x="527.5" y="301" text-anchor="middle" class="cell-text">75%</text>
<rect x="575" y="277" width="70" height="38" fill="#f8f9fa" stroke="#dee2e6" stroke-width="1"/>
<text x="610.0" y="301" text-anchor="middle" class="cell-text">Breiman</text>
<rect x="40" y="315" width="130" height="38" fill="#fff" stroke="#dee2e6" stroke-width="1"/>
<text x="50" y="339" text-anchor="start" class="cell-text">Naive Bayes [15]</text>
<rect x="170" y="315" width="100" height="38" fill="#fff" stroke="#dee2e6" stroke-width="1"/>
<text x="220.0" y="339" text-anchor="middle" class="cell-text">94.2%</text>
<rect x="270" y="315" width="110" height="38" fill="#fff" stroke="#dee2e6" stroke-width="1"/>
<text x="325.0" y="339" text-anchor="middle" class="cell-text">0.02 ms</text>
<rect x="380" y="315" width="100" height="38" fill="#fff" stroke="#dee2e6" stroke-width="1"/>
<text x="430.0" y="339" text-anchor="middle" class="cell-text">0.1 MB</text>
<rect x="480" y="315" width="95" height="38" fill="#fff" stroke="#dee2e6" stroke-width="1"/>
<text x="527.5" y="339" text-anchor="middle" class="cell-text">85%</text>
<rect x="575" y="315" width="70" height="38" fill="#fff" stroke="#dee2e6" stroke-width="1"/>
<text x="610.0" y="339" text-anchor="middle" class="cell-text">Maron</text>
<rect x="40" y="353" width="130" height="38" fill="#f8f9fa" stroke="#dee2e6" stroke-width="1"/>
<text x="50" y="377" text-anchor="start" class="cell-text">Perceptron [25]</text>
<rect x="170" y="353" width="100" height="38" fill="#f8f9fa" stroke="#dee2e6" stroke-width="1"/>
<text x="220.0" y="377" text-anchor="middle" class="cell-text">72.3%</text>
<rect x="270" y="353" width="110" height="38" fill="#f8f9fa" stroke="#dee2e6" stroke-width="1"/>
<text x="325.0" y="377" text-anchor="middle" class="cell-text">0.01 ms</text>
<rect x="380" y="353" width="100" height="38" fill="#f8f9fa" stroke="#dee2e6" stroke-width="1"/>
<text x="430.0" y="377" text-anchor="middle" class="cell-text"><0.1 MB</text>
<rect x="480" y="353" width="95" height="38" fill="#f8f9fa" stroke="#dee2e6" stroke-width="1"/>
<text x="527.5" y="377" text-anchor="middle" class="cell-text">90%</text>
<rect x="575" y="353" width="70" height="38" fill="#f8f9fa" stroke="#dee2e6" stroke-width="1"/>
<text x="610.0" y="377" text-anchor="middle" class="cell-text">Rosenblatt</text>
<rect x="40" y="391" width="130" height="38" fill="#fff" stroke="#dee2e6" stroke-width="1"/>
<text x="50" y="415" text-anchor="start" class="cell-text">Knowledge Graph [21]</text>
<rect x="170" y="391" width="100" height="38" fill="#fff" stroke="#dee2e6" stroke-width="1"/>
<text x="220.0" y="415" text-anchor="middle" class="cell-text">92.1%</text>
<rect x="270" y="391" width="110" height="38" fill="#fff" stroke="#dee2e6" stroke-width="1"/>
<text x="325.0" y="415" text-anchor="middle" class="cell-text">0.10 ms</text>
<rect x="380" y="391" width="100" height="38" fill="#fff" stroke="#dee2e6" stroke-width="1"/>
<text x="430.0" y="415" text-anchor="middle" class="cell-text">0.4 MB</text>
<rect x="480" y="391" width="95" height="38" fill="#fff" stroke="#dee2e6" stroke-width="1"/>
<text x="527.5" y="415" text-anchor="middle" class="cell-text">100%</text>
<rect x="575" y="391" width="70" height="38" fill="#fff" stroke="#dee2e6" stroke-width="1"/>
<text x="610.0" y="415" text-anchor="middle" class="cell-text">Quillian</text>
<rect x="40" y="429" width="130" height="38" fill="#f8f9fa" stroke="#dee2e6" stroke-width="1"/>
<text x="50" y="453" text-anchor="start" class="cell-text-llm">Qwen3.5-0.8B [20]</text>
<rect x="170" y="429" width="100" height="38" fill="#f8f9fa" stroke="#dee2e6" stroke-width="1"/>
<text x="220.0" y="453" text-anchor="middle" class="cell-text-llm">92.3%</text>
<rect x="270" y="429" width="110" height="38" fill="#f8f9fa" stroke="#dee2e6" stroke-width="1"/>
<text x="325.0" y="453" text-anchor="middle" class="cell-text-llm">40,369 ms</text>
<rect x="380" y="429" width="100" height="38" fill="#f8f9fa" stroke="#dee2e6" stroke-width="1"/>
<text x="430.0" y="453" text-anchor="middle" class="cell-text-llm">1,370 MB</text>
<rect x="480" y="429" width="95" height="38" fill="#f8f9fa" stroke="#dee2e6" stroke-width="1"/>
<text x="527.5" y="453" text-anchor="middle" class="cell-text-llm">30%</text>
<rect x="575" y="429" width="70" height="38" fill="#f8f9fa" stroke="#dee2e6" stroke-width="1"/>
<text x="610.0" y="453" text-anchor="middle" class="cell-text-llm">Qwen Team</text>
<text x="40" y="492" class="cell-text" font-style="italic">Note: Latency measured on Apple M3 Pro CPU. Memory indicates runtime footprint.</text>
<text x="40" y="512" class="cell-text" font-style="italic">Interpretability scored on 0-100% scale based on decision transparency.</text>
</svg>